<svg viewBox="0 0 176 49" fill="none" xmlns="http://www.w3.org/2000/svg"><path fill-rule="evenodd" clip-rule="evenodd" d="M116.247 18.438c2.472 0 4.408.955 5.808 2.865 1.398 1.912 2.097 4.564 2.097 7.96 0 2.236-.328 4.177-.983 5.826-.657 1.648-1.59 2.904-2.802 3.764-1.211.862-2.635 1.293-4.271 1.293-2.46 0-4.39-.892-5.788-2.678h-.301c.201 1.748.301 2.759.301 3.033v8.485h-5.715V18.83h4.647l.804 2.716h.264c1.335-2.073 3.316-3.109 5.939-3.109ZM8.174 28.324c1.24-.256 2.599-.112 3.849-.107 1.085.004 2.272-.134 3.335.207-.225-.072-.641.045-.888.051-.286.007-.57.005-.856.009-1.124.484-2.017 2.021-2.392 3.184-.578 1.797-.635 3.765-1.244 5.55-.494 1.442-1.5 2.862-2.85 3.198-1.151.288-2.45.134-3.616.134-1.153 0-2.372.104-3.512-.149.252.056.623-.044.888-.05l.335-.004c.108-.063.481-.17.72-.33.322-.218.615-.495.874-.806a6.315 6.315 0 0 0 1.093-1.993c.628-1.84.67-3.877 1.301-5.716.508-1.483 1.568-2.89 2.963-3.178ZM19.146.836l14.682 39.552h-7.916l-11.06-29.49L18.566.836h.581Zm150.766 10.818v7.177h5.863v4.289h-5.863v10.096c0 .811.226 1.411.684 1.798.455.387 1.058.58 1.807.58.999 0 2.198-.217 3.597-.654v4.251c-1.424.636-3.172.955-5.246.955-2.285 0-3.95-.577-4.994-1.733-1.041-1.155-1.563-2.886-1.563-5.197V23.12h-2.735v-2.416l3.147-1.91 1.736-7.123 3.567-.017Zm-116.557 0v4.01h.017v24.095H49.01l-1.1-2.703h-.242c-1.294 2.05-3.263 3.075-5.91 3.075-2.448 0-4.372-.95-5.77-2.852-1.398-1.901-2.096-4.535-2.096-7.9 0-3.419.71-6.08 2.133-7.988 1.423-1.906 3.384-2.86 5.882-2.86 2.623 0 4.624 1.02 6.003 3.057h.187c-.056-1.71-.026-5.52-.022-5.91v-.032l1.461-3.991h3.819Zm18.583 6.643c2.967 0 5.276.845 6.928 2.533 1.652 1.69 2.479 4.025 2.479 7.002v2.778H67.808c.062 1.628.544 2.899 1.446 3.81.9.915 2.164 1.371 3.792 1.371 1.263 0 2.46-.131 3.586-.394.684-.16 1.388-.384 2.109-.658l1.42 3.826v.006c-1 .499-2.072.871-3.21 1.116-1.14.244-2.528.365-4.168.365-3.38 0-6.02-.932-7.924-2.797-1.902-1.864-2.854-4.505-2.854-7.92 0-3.518.88-6.235 2.64-8.156 1.757-1.921 4.188-2.882 7.293-2.882Zm63.93 0c2.967 0 5.276.845 6.928 2.533 1.652 1.69 2.479 4.025 2.479 7.002v2.778h-13.538c.063 1.628.545 2.899 1.447 3.81.9.915 2.165 1.371 3.792 1.371 1.264 0 2.459-.131 3.586-.394.684-.16 1.388-.384 2.109-.658l1.42 3.826v.006c-1 .499-2.072.871-3.21 1.116-1.139.244-2.528.365-4.168.365-3.38 0-6.021-.932-7.924-2.797-1.902-1.864-2.854-4.505-2.854-7.92 0-3.518.88-6.235 2.639-8.156 1.758-1.921 4.189-2.882 7.294-2.882Zm22.875.141c.775 0 1.419.056 1.93.168l-.43 5.357c-.464-.124-1.025-.187-1.686-.187-1.825 0-3.245.468-4.263 1.405-1.017.936-1.526 2.247-1.526 3.932v10.659h-5.715v-20.94h4.328l.844 3.52h.28a7.876 7.876 0 0 1 2.633-2.837 6.476 6.476 0 0 1 3.605-1.077Zm-70.508.394 4.065 6.667 4.103-6.667h6.482l-6.819 10.244 7.138 10.695h-6.502L92.3 32.598l-4.421 7.173h-6.483l7.102-10.695-6.746-10.244h6.483ZM43.66 23.153c-1.267 0-2.252.537-2.954 1.612-.703 1.075-1.053 2.638-1.053 4.687 0 2.05.354 3.588 1.062 4.613.709 1.025 1.721 1.537 3.04 1.537 1.453 0 2.518-.421 3.196-1.267.677-.845 1.046-2.28 1.109-4.305v-.615c0-2.236-.345-3.84-1.034-4.808-.691-.97-1.813-1.454-3.366-1.454Zm70.751-.145c-1.412 0-2.442.434-3.09 1.302-.651.868-.987 2.3-1.012 4.299v.617c0 2.249.333 3.858 1 4.833.668.974 1.728 1.46 3.177 1.46 2.56 0 3.841-2.109 3.841-6.33 0-2.06-.315-3.606-.947-4.636-.631-1.03-1.62-1.545-2.969-1.545Zm21.496-.638c-1.214 0-2.167.386-2.855 1.154-.688.77-1.082 1.863-1.182 3.276h8.036c-.026-1.413-.394-2.505-1.108-3.276-.713-.768-1.677-1.154-2.891-1.154Zm-63.93 0c-1.214 0-2.167.386-2.854 1.154-.69.77-1.083 1.863-1.183 3.276h8.036c-.026-1.413-.394-2.505-1.108-3.276-.713-.768-1.677-1.154-2.891-1.154ZM80.744 0c.654 0 1.285.13 1.892.392l-.449 1.08a3.208 3.208 0 0 0-1.451-.348c-.585 0-1.053.197-1.405.589-.35.392-.528.919-.528 1.582 0 .692.142 1.22.426 1.585.283.364.695.546 1.237.546.281 0 .567-.028.858-.086V4.01h-1.208V2.886h2.53V6.19a7.084 7.084 0 0 1-2.268.362c-.962 0-1.697-.283-2.204-.848-.508-.565-.76-1.377-.76-2.435 0-1.028.293-1.831.882-2.406C78.884.287 79.7 0 80.744 0Zm44.5.09v1.126h-1.731v5.249h-1.353v-5.25h-1.73V.092h4.814Zm21.049-.025 2.259 6.4h-1.457l-.462-1.517h-2.324l-.462 1.517h-1.456l2.249-6.4h1.653Zm21.38.026v5.257h2.586v1.117h-3.937V.09h1.351ZM36.197.09c1.04 0 1.848.274 2.423.824.577.55.864 1.317.864 2.302 0 1.05-.3 1.853-.897 2.41-.596.558-1.459.837-2.587.837h-1.805V.091h2.002Zm22.927 0v6.373h-1.351V.09h1.351Zm43.357 0v6.373h-1.351V.09h1.351ZM36.267 1.197h-.72v4.15h.58c1.302 0 1.953-.699 1.953-2.096 0-1.369-.605-2.054-1.813-2.054Zm109.207-.144c-.097.373-.371 1.292-.825 2.76h1.661c-.426-1.374-.668-2.151-.721-2.332a5.734 5.734 0 0 1-.115-.428Z" fill="#fff"/></svg>